<svg width="37" height="38" viewBox="0 0 37 38" fill="none" xmlns="http://www.w3.org/2000/svg">
<path d="M33.9648 9.94531L34.0516 9.88593C33.8781 9.55937 33.618 9.2625 33.3578 9.11406L19.3961 0.860934C19.1648 0.712497 18.8469 0.653122 18.5 0.653122C18.1531 0.653122 17.8352 0.742184 17.6039 0.860934L3.72891 9.14375C3.2375 9.44062 2.89062 10.1828 2.89062 10.7469V27.2828C2.89062 27.6094 2.94844 27.9656 3.15078 28.2922L3.09297 28.3219C3.2375 28.5594 3.43984 28.7672 3.64219 28.8859L17.575 37.1687C17.8062 37.3172 18.1242 37.3766 18.4711 37.3766C18.818 37.3766 19.1359 37.2875 19.3672 37.1687L33.2422 28.8859C33.7336 28.5891 34.0805 27.8469 34.0805 27.2828V10.7172C34.1094 10.4797 34.0805 10.2125 33.9648 9.94531ZM18.5 26.2734C21.1305 26.2734 23.443 24.7891 24.657 22.5922L28.3859 24.8484C26.4203 28.3516 22.7203 30.7266 18.5 30.7266C12.1984 30.7266 7.08203 25.4719 7.08203 19C7.08203 12.5281 12.1984 7.27343 18.5 7.27343C22.7492 7.27343 26.4492 9.67812 28.4148 13.2109L24.657 15.4375C23.443 13.2109 21.1305 11.7266 18.5 11.7266C14.5977 11.7266 11.418 14.9922 11.418 19C11.418 23.0078 14.5977 26.2734 18.5 26.2734Z" fill="#0277BD"/>
</svg>
