<svg width="36" height="39" viewBox="0 0 36 39" fill="none" xmlns="http://www.w3.org/2000/svg">
<path d="M12.7969 38.2969C16.1438 38.2969 18.8438 35.4469 18.8438 31.9141V25.5312H12.7969C9.45 25.5312 6.75 28.3813 6.75 31.9141C6.75 35.4469 9.45 38.2969 12.7969 38.2969Z" fill="#0ACF83"/>
<path d="M6.75 19.1484C6.75 15.6156 9.45 12.7656 12.7969 12.7656H18.8438V25.5312H12.7969C9.45 25.5312 6.75 22.6812 6.75 19.1484Z" fill="#A259FF"/>
<path d="M6.75 6.38281C6.75 2.85 9.45 0 12.7969 0H18.8438V12.7656H12.7969C9.45 12.7656 6.75 9.91562 6.75 6.38281Z" fill="#F24E1E"/>
<path d="M18.8438 0H24.8906C28.2375 0 30.9375 2.85 30.9375 6.38281C30.9375 9.91562 28.2375 12.7656 24.8906 12.7656H18.8438V0Z" fill="#FF7262"/>
<path d="M30.9375 19.1484C30.9375 22.6812 28.2375 25.5312 24.8906 25.5312C21.5438 25.5312 18.8438 22.6812 18.8438 19.1484C18.8438 15.6156 21.5438 12.7656 24.8906 12.7656C28.2375 12.7656 30.9375 15.6156 30.9375 19.1484Z" fill="#1ABCFE"/>
</svg>
