<svg width="37" height="38" viewBox="0 0 37 38" fill="none" xmlns="http://www.w3.org/2000/svg">
<path d="M36.0582 17.331L20.126 0.968994C19.2091 0.0267131 17.721 0.0267131 16.8026 0.968994L13.4949 4.36702L17.6915 8.67706C18.6671 8.33892 19.7852 8.56573 20.5625 9.36403C20.9329 9.7448 21.1915 10.225 21.3087 10.7496C21.4259 11.2742 21.397 11.8221 21.2253 12.3307L25.2698 16.4852C26.2483 16.1387 27.3777 16.3626 28.1587 17.1665C29.2514 18.2878 29.2514 20.1056 28.1587 21.2274C27.8991 21.4943 27.5908 21.7059 27.2514 21.8503C26.9121 21.9947 26.5484 22.069 26.1811 22.069C25.8138 22.069 25.4501 21.9947 25.1108 21.8503C24.7714 21.7059 24.4631 21.4943 24.2035 21.2274C23.8134 20.8265 23.5474 20.3161 23.4392 19.7603C23.3309 19.2045 23.3851 18.6282 23.595 18.104L19.8233 14.2301L19.8227 24.4251C20.0964 24.5635 20.3462 24.7468 20.5625 24.9678C21.6548 26.0891 21.6548 27.9062 20.5625 29.0299C19.4701 30.1512 17.6996 30.1512 16.6084 29.0299C15.5163 27.9065 15.4267 26.0894 16.5185 24.9678C16.7884 24.6908 17.0547 24.4815 17.3437 24.3414V14.052C17.0547 13.9119 16.7887 13.704 16.5182 13.4253C15.6912 12.5762 15.5365 11.3293 15.9609 10.2855L11.8466 6.03635L0.933371 17.2553C0.0155976 18.1984 0.0213789 19.7267 0.939152 20.6693L16.874 37.0313C17.7912 37.9736 19.2805 37.9736 20.1991 37.0313L36.0571 20.7453C36.9748 19.8024 36.9757 18.2732 36.0582 17.331Z" fill="#F34F29"/>
</svg>
