<svg width="37" height="38" viewBox="0 0 37 38" fill="none" xmlns="http://www.w3.org/2000/svg">
<g clip-path="url(#clip0_1_126)">
<path d="M24.3692 37.4265C34.593 33.9115 40.3315 21.4948 34.927 10.7548C28.4244 -2.16753 10.6236 -3.00842 2.96253 9.24478C-3.75285 19.9854 1.56924 33.9022 12.6851 37.4248C13.6085 37.599 13.946 37.0123 13.946 36.5119C13.946 36.0605 13.9295 34.5643 13.9197 32.9819C8.78375 34.1281 7.69895 30.7452 7.69895 30.7452C6.85779 28.5542 5.64789 27.9709 5.64789 27.9709C3.96884 26.7943 5.77463 26.8179 5.77463 26.8179C7.62817 26.9498 8.60597 28.7723 8.60597 28.7723C10.2537 31.6717 12.9303 30.8331 13.9806 30.3462C14.1485 29.1239 14.6258 28.2854 15.1526 27.8137C11.0537 27.3353 6.74091 25.7072 6.74091 18.4393C6.74091 16.3666 7.46191 14.6776 8.64054 13.3488C8.45288 12.867 7.81583 10.938 8.82325 8.32771C8.82325 8.32771 10.3723 7.81884 13.9015 10.2719C16.9173 9.43818 19.9965 9.40989 23.1462 10.2753C26.6689 7.81884 28.2212 8.33109 28.2212 8.33109C29.2302 10.9431 28.5948 12.8704 28.4055 13.3505C29.5891 14.6776 30.3035 16.3683 30.3035 18.441C30.3035 25.7275 25.9841 27.3319 21.8704 27.8019C22.5354 28.3902 23.1231 29.5432 23.1231 31.3116C23.1231 33.8475 23.0984 35.8914 23.0984 36.517C23.0984 37.0225 23.4342 37.6125 24.3692 37.4265Z" fill="black"/>
</g>
<defs>
<clipPath id="clip0_1_126">
<rect width="37" height="38" fill="white"/>
</clipPath>
</defs>
</svg>
