<svg width="37" height="38" viewBox="0 0 37 38" fill="none" xmlns="http://www.w3.org/2000/svg">
<path d="M4.625 4.75H32.375V33.25H4.625V4.75ZM11.9171 28.5633C12.5338 29.9092 13.7517 31.0175 15.8329 31.0175C18.1454 31.0175 19.7333 29.7508 19.7333 26.98V17.8283H17.1125V26.9167C17.1125 28.2783 16.5729 28.6267 15.725 28.6267C14.8308 28.6267 14.4608 27.9933 14.0446 27.2492L11.9171 28.5633ZM21.1362 28.2783C21.9071 29.83 23.4642 31.0175 25.9 31.0175C28.3667 31.0175 30.2167 29.7033 30.2167 27.2808C30.2167 25.0483 28.9679 24.0508 26.7479 23.0692L26.1004 22.7842C24.975 22.2933 24.4971 21.9608 24.4971 21.1692C24.4971 20.52 24.975 20.0133 25.7458 20.0133C26.4858 20.0133 26.9792 20.3458 27.4263 21.1692L29.4458 19.7917C28.5979 18.2717 27.3954 17.6858 25.7458 17.6858C23.4179 17.6858 21.9225 19.2058 21.9225 21.2167C21.9225 23.4017 23.1712 24.4308 25.0521 25.2542L25.6996 25.5392C26.9021 26.0775 27.6112 26.41 27.6112 27.3283C27.6112 28.0883 26.9175 28.6425 25.8383 28.6425C24.5588 28.6425 23.8188 27.9617 23.2638 27.0117L21.1362 28.2783Z" fill="#FFCB6B"/>
</svg>
