<svg width="38" height="38" viewBox="0 0 38 38" fill="none" xmlns="http://www.w3.org/2000/svg">
<path d="M0.594047 26.8547H1.81361V22.0385L3.70173 26.2372C3.92439 26.7455 4.22928 26.9251 4.82748 26.9251C5.42569 26.9251 5.719 26.7455 5.94166 26.2372L7.82978 22.0385V26.8547H9.04934V22.0465C9.04934 21.5775 8.86172 21.3504 8.47459 21.2334C7.54805 20.9442 6.92639 21.1945 6.64495 21.82L4.79216 25.9638L2.99814 21.8197C2.72828 21.1945 2.09505 20.9442 1.1685 21.2331C0.781375 21.3504 0.59375 21.5772 0.59375 22.0462V26.8547H0.594047ZM10.0638 22.9342H11.283V25.5877C11.2718 25.7316 11.3293 26.0701 11.9973 26.0808C12.3381 26.0861 14.6282 26.0808 14.6496 26.0808V22.9211H15.8718C15.8775 22.9211 15.8706 27.23 15.8706 27.2478C15.8772 28.3106 14.5522 28.5413 13.9412 28.5591H10.0902V27.7385C10.0967 27.7385 13.9386 27.7394 13.9481 27.7382C14.7333 27.6554 14.6404 27.2653 14.6401 27.1341V26.814H12.0481C10.8422 26.8031 10.0739 26.2767 10.0641 25.6711C10.0635 25.6156 10.0905 22.9609 10.0638 22.9342Z" fill="#00618A"/>
<path d="M16.812 26.8547H20.3187C20.7293 26.8547 21.1283 26.7689 21.4447 26.6205C21.9723 26.3782 22.2303 26.0499 22.2303 25.6194V24.7282C22.2303 24.3764 21.9373 24.0478 21.3625 23.8293C21.0576 23.7117 20.6821 23.6497 20.3184 23.6497H18.8406C18.348 23.6497 18.1135 23.5012 18.055 23.1729C18.0434 23.1337 18.0434 23.1025 18.0434 23.0633V22.5082C18.0434 22.477 18.0434 22.4455 18.055 22.4066C18.1135 22.1564 18.2427 22.086 18.6767 22.0468L18.7939 22.0391H22.2772V21.2263H18.8527C18.3602 21.2263 18.1022 21.2574 17.8677 21.3278C17.1407 21.5546 16.8236 21.9141 16.8236 22.5396V23.251C16.8236 23.7984 17.4455 24.2675 18.4891 24.377C18.6066 24.3844 18.7236 24.3927 18.8409 24.3927H20.1076C20.1545 24.3927 20.2014 24.3927 20.2368 24.4002C20.6239 24.4313 20.7878 24.502 20.9053 24.6424C20.9355 24.6702 20.9594 24.7041 20.9755 24.7418C20.9916 24.7795 20.9996 24.8202 20.9988 24.8612V25.5728C20.9988 25.6586 20.9404 25.7682 20.8231 25.862C20.7177 25.9558 20.5417 26.0184 20.3071 26.0342L20.178 26.0419H16.812V26.8547ZM29.8392 25.4398C29.8392 26.2761 30.4608 26.7452 31.7154 26.8393C31.8327 26.847 31.95 26.8547 32.0672 26.8547H35.2456V26.0419H32.0441C31.3286 26.0419 31.059 25.862 31.059 25.4318V21.2257H29.8395V25.4398H29.8392ZM23.0087 25.482V22.583C23.0087 21.8467 23.5258 21.3999 24.5483 21.2589C24.6572 21.2433 24.7672 21.2355 24.8772 21.2355H27.1925C27.3101 21.2355 27.4158 21.2432 27.5331 21.2589C28.5555 21.3999 29.073 21.8464 29.073 22.583V25.482C29.073 26.0799 28.8533 26.3993 28.3471 26.6077L29.5488 27.6922H28.1325L27.1605 26.8146L26.182 26.8767H24.8772C24.6348 26.8751 24.3938 26.8409 24.1606 26.7749C23.3848 26.5635 23.0087 26.1559 23.0087 25.482ZM24.325 25.4116C24.325 25.4508 24.3366 25.4903 24.3485 25.5372C24.4188 25.8741 24.7365 26.0621 25.218 26.0621H26.326L25.3083 25.1432H26.7247L27.612 25.9448C27.7759 25.8572 27.8834 25.7242 27.9211 25.5529C27.9327 25.5137 27.9327 25.4746 27.9327 25.4354V22.6542C27.9327 22.6231 27.9327 22.5836 27.9211 22.5444C27.8504 22.2309 27.5331 22.051 27.0631 22.051H25.2177C24.6774 22.051 24.3247 22.2861 24.3247 22.6542V25.4116H24.325Z" fill="#E48E00"/>
<path d="M36.3185 19.8764C35.5689 19.8559 34.9963 19.9257 34.5064 20.132C34.3672 20.1908 34.1454 20.1923 34.1228 20.3665C34.1991 20.447 34.211 20.5666 34.2719 20.6652C34.3888 20.8543 34.5863 21.1078 34.7623 21.2405C34.9544 21.3857 35.1527 21.5413 35.3593 21.6671C35.726 21.891 36.1357 22.0186 36.4892 22.2425C36.6973 22.3749 36.904 22.5411 37.1073 22.6905C37.208 22.7638 37.2751 22.8787 37.406 22.9247V22.9036C37.3374 22.8163 37.3196 22.6964 37.2567 22.605L36.9794 22.3277C36.7083 21.9679 36.3646 21.6523 35.9985 21.3899C35.707 21.1806 35.0544 20.8976 34.9327 20.5583L34.9113 20.5372C35.118 20.5138 35.3602 20.439 35.5508 20.3879C35.8714 20.3018 36.1579 20.3241 36.4889 20.2386L36.9366 20.1103V20.0254C36.7695 19.8538 36.6498 19.6264 36.4676 19.4711C35.9905 19.0647 35.4692 18.6586 34.9327 18.3196C34.6353 18.1319 34.2674 18.0099 33.9518 17.8508C33.8462 17.7971 33.6597 17.7695 33.5894 17.6801C33.4234 17.469 33.3335 17.2015 33.2055 16.9554C32.9322 16.4238 32.6763 15.8834 32.4381 15.3351C32.2766 14.9655 32.1709 14.6009 31.9693 14.2693C31.0012 12.6778 29.9592 11.7171 28.3451 10.773C28.0016 10.572 27.588 10.4931 27.1513 10.3894L26.4477 10.3467C26.3049 10.287 26.1559 10.1119 26.0214 10.027C25.4865 9.68912 24.1149 8.95435 23.7189 9.92068C23.4689 10.5305 24.0929 11.1254 24.3159 11.4344C24.4723 11.6512 24.673 11.894 24.7849 12.1377C24.8586 12.2981 24.871 12.4587 24.9343 12.6282C25.0889 13.0456 25.224 13.5001 25.4244 13.8857C25.5256 14.0811 25.6376 14.2868 25.7655 14.4614C25.8439 14.5683 25.9787 14.6158 25.9998 14.7811C25.8682 14.9652 25.8605 15.2514 25.7866 15.4844C25.4535 16.5351 25.5791 17.841 26.0639 18.6185C26.2126 18.8575 26.5629 19.3693 27.0445 19.1728C27.4657 19.0012 27.3719 18.4695 27.4924 18.0001C27.5198 17.8941 27.5028 17.8158 27.5563 17.7445V17.7659L27.9401 18.5333C28.2242 18.9908 28.728 19.4685 29.1552 19.7912C29.3767 19.9583 29.5513 20.2478 29.8375 20.3454V20.3238H29.8164C29.7606 20.2374 29.6742 20.2018 29.6029 20.132C29.4361 19.9684 29.2505 19.7654 29.1128 19.5777C28.7242 19.0505 28.381 18.4731 28.0681 17.8722C27.9188 17.5854 27.789 17.2689 27.6631 16.9768C27.6145 16.8643 27.615 16.6939 27.5141 16.636C27.3758 16.8497 27.173 17.0228 27.0661 17.2755C26.8957 17.6792 26.8738 18.1717 26.8105 18.6824L26.7678 18.7034C26.4706 18.6319 26.3664 18.3261 26.256 18.064C25.9769 17.401 25.9249 16.3332 26.1708 15.5699C26.2343 15.3722 26.5214 14.7502 26.405 14.5677C26.3495 14.3857 26.1663 14.2806 26.0642 14.1411C25.9302 13.9543 25.8159 13.7543 25.7231 13.544C25.4945 13.0272 25.3879 12.4468 25.1477 11.924C25.0325 11.674 24.8384 11.4214 24.6787 11.1993C24.502 10.9529 24.304 10.7718 24.1668 10.4743C24.1182 10.3687 24.052 10.1991 24.1241 10.0905C24.147 10.0172 24.1799 9.98658 24.2523 9.96254C24.3758 9.86724 24.7202 9.9943 24.8491 10.0477C25.1911 10.1899 25.4764 10.325 25.7661 10.5168C25.905 10.6091 26.0455 10.7873 26.2138 10.8365H26.4056C26.7057 10.9054 27.0421 10.8576 27.3223 10.9428C27.8181 11.0936 28.2622 11.3279 28.6654 11.5826C29.8942 12.3586 30.8985 13.463 31.586 14.7805C31.6965 14.9928 31.7446 15.195 31.8417 15.42C32.0382 15.8736 32.2858 16.3406 32.4811 16.7844C32.6762 17.2271 32.8665 17.6739 33.1423 18.0423C33.2871 18.2358 33.847 18.3398 34.1015 18.4472C34.2799 18.5226 34.572 18.6013 34.7409 18.7028C35.0636 18.8976 35.3765 19.1294 35.6791 19.3426C35.8302 19.4501 36.2954 19.6837 36.3185 19.8764ZM26.7891 11.7542C26.6599 11.7521 26.5309 11.7664 26.4053 11.7969V11.818H26.4267C26.5012 11.9715 26.6327 12.0701 26.725 12.2019L26.9385 12.6496L26.9595 12.6285C27.0917 12.5356 27.1519 12.3868 27.1513 12.1594C27.0982 12.1036 27.0905 12.0338 27.0448 11.9676C26.9842 11.8786 26.866 11.8287 26.7891 11.7542Z" fill="#00618A"/>
</svg>
