<svg width="37" height="38" viewBox="0 0 37 38" fill="none" xmlns="http://www.w3.org/2000/svg">
<path d="M18.5 9.80844C8.74704 9.80844 0.840027 13.9237 0.840027 19C0.840027 24.0763 8.74704 28.1915 18.5 28.1915C28.253 28.1915 36.16 24.0763 36.16 19C36.16 13.9237 28.253 9.80844 18.5 9.80844ZM13.9048 20.7907C13.4833 21.1957 13.0153 21.3628 12.4999 21.535C11.9845 21.7075 11.3287 21.6719 10.5311 21.6719H8.72363L8.22268 24.6406H6.11224L7.99548 14.5469H12.0539C13.2749 14.5469 14.1655 14.9076 14.7254 15.5657C15.2853 16.2239 15.4536 17.1582 15.2304 18.3377C15.1382 18.8236 14.983 19.2755 14.7639 19.6781C14.5368 20.0934 14.2468 20.469 13.9048 20.7907ZM20.065 21.6719L20.8978 17.3909C20.9926 16.8898 20.9579 16.5175 20.7934 16.3355C20.6287 16.1533 20.2783 16.0312 19.7427 16.0312H18.069L16.9905 21.6719H14.8966L16.7798 11.875H18.8738L18.3731 14.5469H20.2384C21.4123 14.5469 22.2217 14.7888 22.6671 15.2092C23.1126 15.6296 23.2461 16.2055 23.0681 17.1472L22.1919 21.6719H20.065ZM31.7024 18.3534C31.6104 18.8394 31.4549 19.2835 31.2361 19.6858C31.017 20.0886 30.7308 20.4571 30.3773 20.7907C29.9558 21.1957 29.4876 21.3628 28.9725 21.535C28.4573 21.7075 27.8009 21.6719 27.0034 21.6719H25.1959L24.6952 24.6406H22.5848L24.4677 14.5469H28.5264C29.7474 14.5469 30.638 14.9076 31.1977 15.5657C31.757 16.2239 31.9255 17.1742 31.7024 18.3534ZM27.7266 16.0312H26.281L25.4927 20.1875H26.7767C27.6272 20.1875 28.2614 20.1014 28.6776 19.7719C29.0944 19.4429 29.3751 18.9323 29.5211 18.1625C29.661 17.423 29.5974 16.8462 29.3303 16.5422C29.0629 16.2382 28.5285 16.0312 27.7266 16.0312ZM11.2544 16.0312H9.80848L9.02021 20.1875H10.3039C11.1546 20.1875 11.7886 20.1014 12.2051 19.7719C12.6216 19.4429 12.9026 18.9323 13.0483 18.1625C13.1882 17.423 13.1246 16.8462 12.8575 16.5422C12.5904 16.2382 12.0562 16.0312 11.2544 16.0312Z" fill="#6181B6"/>
</svg>
