<svg width="37" height="38" viewBox="0 0 37 38" fill="none" xmlns="http://www.w3.org/2000/svg">
<path d="M5.41235 19.3206C5.41235 24.6323 8.4186 29.2267 12.7788 31.3987L6.54548 13.8557C5.81935 15.5266 5.41235 17.3731 5.41235 19.3206ZM27.3059 18.6426C27.3059 16.9836 26.7244 15.8341 26.2283 14.9399C25.5658 13.8332 24.946 12.8986 24.946 11.7907C24.946 10.5569 25.8537 9.40856 27.1406 9.40856C27.1961 9.40856 27.2528 9.41687 27.3083 9.42044C24.9842 7.23306 21.8866 5.89594 18.4838 5.89594C13.9166 5.89594 9.89976 8.303 7.56413 11.9474C7.8717 11.9569 8.1596 11.9641 8.40473 11.9641C9.77257 11.9641 11.8885 11.7919 11.8885 11.7919C12.5915 11.7515 12.6748 12.8119 11.9706 12.8986C11.9706 12.8986 11.2641 12.9829 10.4756 13.0269L15.2359 27.5654L18.0964 18.7566L16.0591 13.0269C15.3549 12.9829 14.6889 12.8986 14.6889 12.8986C13.9836 12.8547 14.068 11.7515 14.7734 11.7919C14.7734 11.7919 16.9298 11.9641 18.2144 11.9641C19.581 11.9641 21.6993 11.7919 21.6993 11.7919C22.4011 11.7515 22.4844 12.8119 21.7802 12.8986C21.7802 12.8986 21.0738 12.9829 20.2864 13.0269L25.0096 27.455L26.3139 22.9829C26.9764 21.2372 27.3094 19.7932 27.3094 18.6426H27.3059ZM18.7127 20.4951L14.7895 32.1991C15.9597 32.5518 17.1969 32.7441 18.4826 32.7441C20.0031 32.7441 21.4646 32.4734 22.8232 31.9817C22.7885 31.9247 22.7561 31.8642 22.7295 31.7989L18.7127 20.4951ZM29.9514 12.8796C30.0093 13.3083 30.0416 13.7667 30.0416 14.2619C30.0416 15.6227 29.793 17.1534 29.0461 19.0701L25.0536 30.9225C28.9386 28.5974 31.5505 24.2749 31.5505 19.3218C31.5505 16.986 30.9713 14.7927 29.9514 12.8796Z" fill="#2A7AC9"/>
</svg>
