<svg width="343" height="367" viewBox="0 0 343 367" fill="none" xmlns="http://www.w3.org/2000/svg">
<path d="M271.377 280.694C241.946 258.69 241.957 214.566 271.401 192.577L320.91 155.603C334.812 145.221 343 128.887 343 111.536V75.3481L127.585 236.38C97.8077 258.64 55.3954 237.362 55.4374 200.184V200.184C55.4793 163.051 97.847 141.857 127.587 164.091L136.909 171.06C154.929 184.532 179.65 184.594 197.738 171.214L320.709 80.2474C334.729 69.876 343 53.4698 343 36.0303L343 0L200.149 105.673C180.63 120.112 153.953 120.044 134.507 105.507L88.011 70.7456C51.728 43.6201 0.0461448 69.5338 0.0785116 114.836L0.201222 286.586C0.233767 332.137 52.4539 357.908 88.6273 330.224L136.489 293.595C156.034 278.638 183.136 278.485 202.848 293.222L291.935 359.824C312.997 375.57 343 360.54 343 334.243V334.243L298.834 301.222L271.377 280.694Z" fill="url(#paint0_linear_136_35)"/>
<path d="M343 334.243L343 147.891L320.917 164.387C307.019 174.77 298.834 191.101 298.834 208.45L298.834 301.222L343 334.243Z" fill="url(#paint1_linear_136_35)"/>
<defs>
<linearGradient id="paint0_linear_136_35" x1="343" y1="0" x2="1.71051e-05" y2="398" gradientUnits="userSpaceOnUse">
<stop stop-color="white"/>
<stop offset="1" stop-color="#999999"/>
</linearGradient>
<linearGradient id="paint1_linear_136_35" x1="343" y1="0" x2="1.71051e-05" y2="398" gradientUnits="userSpaceOnUse">
<stop stop-color="white"/>
<stop offset="1" stop-color="#999999"/>
</linearGradient>
</defs>
</svg>
