<svg width="38" height="38" viewBox="0 0 46 46" fill="none" xmlns="http://www.w3.org/2000/svg">
<rect x="0.25" y="0.25" width="45.5" height="45.5" rx="5.75" fill="url(#paint0_linear_2215_693)" stroke="#7A87FF" stroke-width="0.5"/>
<g filter="url(#filter0_d_2215_693)">
<path d="M23.3496 11.2148C23.1078 11.2148 22.884 11.2611 22.678 11.3538C22.4721 11.4464 22.293 11.5715 22.1407 11.729C21.9885 11.8865 21.8632 12.0765 21.7647 12.2988C21.6662 12.5212 21.6214 12.7528 21.6303 12.9937V15.2173H16.4726V20.554H13.4639C13.2221 20.554 12.9983 20.6004 12.7923 20.693C12.5864 20.7857 12.4073 20.9107 12.255 21.0682C12.1028 21.2257 11.9775 21.4157 11.879 21.638C11.7805 21.8604 11.7357 22.092 11.7446 22.3329C11.7446 22.5831 11.7894 22.8147 11.879 23.0278C11.9685 23.2409 12.0894 23.4262 12.2416 23.5837C12.3938 23.7412 12.5774 23.8709 12.7923 23.9729C13.0072 24.0748 13.2311 24.1211 13.4639 24.1118H16.4726V29.4485H21.2811L21.2274 29.8932C21.2095 30.0415 21.2005 30.1897 21.2005 30.338C21.2005 30.6345 21.2184 30.9263 21.2543 31.2135C21.2901 31.5007 21.3393 31.788 21.402 32.0752C21.411 32.1122 21.4289 32.1725 21.4557 32.2558C21.4826 32.3392 21.5095 32.4273 21.5363 32.5199C21.5632 32.6126 21.5856 32.6959 21.6035 32.7701C21.6214 32.8442 21.6303 32.8905 21.6303 32.909V35.6191C21.102 35.3041 20.6857 34.8779 20.3812 34.3405C20.0767 33.8031 19.92 33.2102 19.9111 32.5616V31.2274H14.7533V25.8907H13.4639C12.9893 25.8907 12.5461 25.7981 12.1342 25.6128C11.7223 25.4275 11.3551 25.1727 11.0328 24.8484C10.7104 24.5241 10.4642 24.1489 10.294 23.7227C10.1239 23.2965 10.0343 22.8332 10.0254 22.3329C10.0254 21.8419 10.1149 21.3833 10.294 20.9571C10.4731 20.5309 10.7194 20.151 11.0328 19.8175C11.3462 19.4839 11.7088 19.2291 12.1207 19.0531C12.5326 18.877 12.9804 18.7844 13.4639 18.7751H14.7533V13.4384H19.9111V12.9937C19.9111 12.5027 20.0006 12.044 20.1797 11.6178C20.3588 11.1916 20.6051 10.8118 20.9185 10.4782C21.2319 10.1447 21.5945 9.8899 22.0064 9.71387C22.4183 9.53783 22.8661 9.44518 23.3496 9.43591C23.8242 9.43591 24.2674 9.52856 24.6793 9.71387C25.0912 9.89917 25.4584 10.154 25.7807 10.4782C26.1031 10.8025 26.3493 11.1778 26.5195 11.6039C26.6896 12.0301 26.7791 12.4934 26.7881 12.9937V13.4384H31.9459V20.554H29.7968C29.3849 20.554 29.0267 20.693 28.7223 20.971C28.4178 21.2489 28.2253 21.5964 28.1447 22.0133C27.8402 22.0596 27.5403 22.1198 27.2448 22.194C26.9493 22.2681 26.6583 22.37 26.3717 22.4997V22.4163C26.3717 22.3885 26.3672 22.3607 26.3583 22.3329C26.3583 21.8419 26.4478 21.3833 26.6269 20.9571C26.806 20.5309 27.0523 20.151 27.3657 19.8175C27.6791 19.4839 28.0417 19.2291 28.4536 19.0531C28.8655 18.877 29.3133 18.7844 29.7968 18.7751H30.2266V15.2173H25.0688V12.9937C25.0688 12.7436 25.0241 12.5119 24.9345 12.2988C24.845 12.0857 24.7241 11.9004 24.5719 11.7429C24.4197 11.5854 24.2361 11.4557 24.0212 11.3538C23.8063 11.2519 23.5824 11.2055 23.3496 11.2148ZM35.3844 30.338C35.3844 31.1996 35.2277 32.0057 34.9143 32.7562C34.6009 33.5066 34.171 34.1691 33.6248 34.7435C33.0786 35.318 32.4428 35.7627 31.7175 36.0777C30.9922 36.3927 30.2087 36.5549 29.367 36.5641C28.5342 36.5641 27.7552 36.402 27.0299 36.0777C26.3046 35.7534 25.6643 35.3087 25.1091 34.7435C24.554 34.1784 24.1242 33.5205 23.8197 32.7701C23.5153 32.0196 23.3586 31.2089 23.3496 30.338C23.3496 29.4763 23.5063 28.6703 23.8197 27.9198C24.1331 27.1693 24.5629 26.5069 25.1091 25.9324C25.6554 25.358 26.2911 24.9133 27.0164 24.5982C27.7418 24.2832 28.5253 24.1211 29.367 24.1118C30.1997 24.1118 30.9788 24.274 31.7041 24.5982C32.4294 24.9225 33.0696 25.3672 33.6248 25.9324C34.18 26.4976 34.6098 27.1554 34.9143 27.9059C35.2187 28.6564 35.3754 29.4671 35.3844 30.338ZM25.0688 30.338C25.0688 30.9495 25.1808 31.5239 25.4046 32.0613C25.6285 32.5987 25.933 33.0712 26.318 33.4788C26.703 33.8865 27.1597 34.2061 27.688 34.4378C28.2163 34.6694 28.776 34.7852 29.367 34.7852C29.7878 34.7852 30.1997 34.725 30.6027 34.6045C31.0056 34.4841 31.3817 34.2988 31.731 34.0486L25.7807 27.892C25.5479 28.2533 25.3733 28.6425 25.2569 29.0594C25.1405 29.4763 25.0778 29.9025 25.0688 30.338ZM32.9532 32.784C33.186 32.4226 33.3607 32.0335 33.4771 31.6166C33.5935 31.1996 33.6562 30.7734 33.6651 30.338C33.6651 29.7265 33.5532 29.152 33.3293 28.6147C33.1055 28.0773 32.7965 27.6094 32.4025 27.211C32.0085 26.8126 31.5519 26.493 31.0325 26.2521C30.5131 26.0112 29.958 25.8907 29.367 25.8907C28.9461 25.8907 28.5342 25.9509 28.1313 26.0714C27.7283 26.1918 27.3522 26.3771 27.003 26.6273L32.9532 32.784Z" fill="white"/>
</g>
<defs>
<filter id="filter0_d_2215_693" x="6.02539" y="9.43591" width="33.3594" height="35.1282" filterUnits="userSpaceOnUse" color-interpolation-filters="sRGB">
<feFlood flood-opacity="0" result="BackgroundImageFix"/>
<feColorMatrix in="SourceAlpha" type="matrix" values="0 0 0 0 0 0 0 0 0 0 0 0 0 0 0 0 0 0 127 0" result="hardAlpha"/>
<feOffset dy="4"/>
<feGaussianBlur stdDeviation="2"/>
<feComposite in2="hardAlpha" operator="out"/>
<feColorMatrix type="matrix" values="0 0 0 0 0 0 0 0 0 0 0 0 0 0 0 0 0 0 0.25 0"/>
<feBlend mode="normal" in2="BackgroundImageFix" result="effect1_dropShadow_2215_693"/>
<feBlend mode="normal" in="SourceGraphic" in2="effect1_dropShadow_2215_693" result="shape"/>
</filter>
<linearGradient id="paint0_linear_2215_693" x1="23" y1="0" x2="23" y2="46" gradientUnits="userSpaceOnUse">
<stop stop-color="#0119F4"/>
<stop offset="1" stop-color="#000B6D"/>
</linearGradient>
</defs>
</svg>
